<svg width="130" height="56" viewBox="0 0 130 56" fill="none" xmlns="http://www.w3.org/2000/svg">
<path d="M128.068 55.0366C128.339 55.0847 128.599 54.9032 128.647 54.6313L129.43 50.2C129.478 49.9281 129.297 49.6687 129.025 49.6206C128.753 49.5725 128.494 49.754 128.446 50.0259L127.749 53.9648L123.81 53.2685C123.538 53.2204 123.279 53.4019 123.231 53.6738C123.183 53.9457 123.364 54.2051 123.636 54.2532L128.068 55.0366ZM0.525998 2.36264C1.00223 2.28789 1.48978 2.21582 1.98829 2.14665L1.85085 1.15614C1.3466 1.22611 0.853184 1.29904 0.37094 1.37473L0.525998 2.36264ZM4.97555 1.78213C5.94233 1.67948 6.94212 1.58748 7.97296 1.50736L7.89547 0.510367C6.85549 0.591202 5.84633 0.684056 4.86997 0.78772L4.97555 1.78213ZM10.9767 1.31307C11.9566 1.2621 12.96 1.22171 13.9856 1.1928L13.9574 0.193195C12.9239 0.22233 11.9126 0.263033 10.9248 0.314418L10.9767 1.31307ZM16.9989 1.14204C17.9873 1.13643 18.9935 1.1414 20.0164 1.15766L20.0323 0.157791C19.0022 0.141411 17.9888 0.136403 16.9932 0.14206L16.9989 1.14204ZM23.0375 1.23748C24.0248 1.27386 25.0258 1.32075 26.0395 1.37874L26.0966 0.380371C25.0761 0.321995 24.0684 0.274785 23.0743 0.238158L23.0375 1.23748ZM29.0402 1.58058C30.0309 1.65715 31.0322 1.74435 32.0435 1.84269L32.1403 0.847384C31.1224 0.748399 30.1145 0.660625 29.1172 0.583552L29.0402 1.58058ZM35.0482 2.16484C36.0349 2.28049 37.03 2.40681 38.0327 2.54427L38.1685 1.55353C37.1593 1.41518 36.1578 1.28804 35.1646 1.17164L35.0482 2.16484ZM41.0097 2.9821C41.9956 3.13698 42.9879 3.30273 43.9861 3.47975L44.1607 2.49512C43.156 2.31694 42.1572 2.15011 41.1649 1.99422L41.0097 2.9821ZM46.9507 4.03583C47.9272 4.22904 48.9086 4.43318 49.8942 4.64862L50.1077 3.67169C49.1156 3.45482 48.1278 3.24933 47.1448 3.05485L46.9507 4.03583ZM52.8338 5.32223C53.8059 5.55532 54.7815 5.79959 55.76 6.05537L56.0129 5.08788C55.0278 4.83036 54.0456 4.58445 53.067 4.34979L52.8338 5.32223ZM58.661 6.84548C59.6233 7.11821 60.5877 7.40227 61.5539 7.698L61.8466 6.74178C60.8737 6.444 59.9025 6.15797 58.9337 5.88338L58.661 6.84548ZM64.426 8.6102C65.3741 8.92239 66.3233 9.24604 67.2732 9.58145L67.6062 8.63851C66.6495 8.3007 65.6936 7.97475 64.7388 7.66037L64.426 8.6102ZM70.1074 10.6169C71.0416 10.9697 71.976 11.3342 72.9101 11.7107L73.2839 10.7832C72.3429 10.404 71.4017 10.0368 70.4607 9.68136L70.1074 10.6169ZM75.69 12.8671C76.6107 13.2622 77.5307 13.6693 78.4495 14.0884L78.8646 13.1787C77.9388 12.7563 77.012 12.3462 76.0844 11.9482L75.69 12.8671ZM81.1688 15.3668C82.0698 15.803 82.9692 16.2513 83.8665 16.7119L84.3231 15.8222C83.4188 15.3581 82.5125 14.9063 81.6046 14.4668L81.1688 15.3668ZM86.5282 18.1176C87.4062 18.5947 88.2819 19.0839 89.1549 19.5854L89.6531 18.7184C88.7732 18.2128 87.8905 17.7197 87.0056 17.2389L86.5282 18.1176ZM91.7525 21.12C92.6051 21.6377 93.4547 22.1676 94.3008 22.7099L94.8405 21.868C93.9875 21.3212 93.131 20.787 92.2715 20.2652L91.7525 21.12ZM96.8191 24.3682C97.6461 24.9275 98.4694 25.4991 99.2886 26.0834L99.8692 25.2692C99.0432 24.6801 98.2131 24.1037 97.3793 23.5398L96.8191 24.3682ZM101.718 27.8618C102.517 28.4627 103.312 29.076 104.103 29.702L104.724 28.918C103.926 28.2868 103.125 27.6683 102.318 27.0624L101.718 27.8618ZM106.435 31.5975C107.205 32.2391 107.969 32.8932 108.729 33.56L109.389 32.8086C108.623 32.1361 107.852 31.4765 107.076 30.8295L106.435 31.5975ZM110.958 35.5683C111.694 36.2481 112.424 36.9404 113.149 37.6453L113.846 36.9285C113.115 36.2176 112.379 35.5195 111.637 34.8339L110.958 35.5683ZM115.273 39.7651C115.972 40.4807 116.665 41.2086 117.353 41.949L118.085 41.2687C117.392 40.522 116.693 39.7879 115.988 39.0663L115.273 39.7651ZM119.369 44.1769C120.03 44.9262 120.684 45.6877 121.333 46.4615L122.099 45.8192C121.445 45.0389 120.785 44.271 120.119 43.5154L119.369 44.1769ZM123.236 48.7908C123.857 49.5716 124.473 50.3645 125.081 51.1695L125.879 50.5663C125.265 49.7547 124.645 48.9553 124.018 48.1679L123.236 48.7908ZM126.867 53.5924C127.161 54.0022 127.454 54.415 127.745 54.8308L128.564 54.2576C128.271 53.8384 127.976 53.4222 127.679 53.0091L126.867 53.5924Z" fill="black"/>
</svg>
